<svg xmlns="http://www.w3.org/2000/svg" width="281" height="146" viewBox="0 0 281 146"><g><g><path fill="#efb81d" d="M5.804 146C2.604 146 0 143.402 0 140.209c0-3.193 2.604-5.79 5.804-5.79s5.805 2.597 5.805 5.79S9.005 146 5.804 146zm44.91 0c-3.2 0-5.804-2.598-5.804-5.791 0-3.193 2.604-5.79 5.804-5.79s5.805 2.597 5.805 5.79S53.915 146 50.714 146zm44.91 0c-3.2 0-5.804-2.598-5.804-5.791 0-3.193 2.604-5.79 5.804-5.79s5.805 2.597 5.805 5.79S98.825 146 95.624 146zm44.798 0c-3.17-.016-5.76-2.614-5.76-5.791 0-3.18 2.593-5.778 5.78-5.79l-.07-.001h.213c3.162.015 5.754 2.613 5.754 5.791 0 3.177-2.589 5.774-5.772 5.79zM5.804 101.194c-3.2 0-5.804-2.598-5.804-5.79 0-3.194 2.604-5.792 5.804-5.792s5.805 2.598 5.805 5.791c0 3.193-2.604 5.791-5.805 5.791zm44.91 0c-3.2 0-5.804-2.598-5.804-5.79 0-3.194 2.604-5.792 5.804-5.792s5.805 2.598 5.805 5.791c0 3.193-2.604 5.791-5.805 5.791zm44.91 0c-3.2 0-5.804-2.598-5.804-5.79 0-3.194 2.604-5.792 5.804-5.792s5.805 2.598 5.805 5.791c0 3.193-2.604 5.791-5.805 5.791zm44.802 0c-3.173-.015-5.765-2.612-5.765-5.79 0-3.185 2.597-5.783 5.789-5.792h.117c3.18.014 5.772 2.612 5.772 5.791 0 3.175-2.588 5.772-5.77 5.791zM5.804 56.388c-3.2 0-5.804-2.597-5.804-5.79 0-3.194 2.604-5.791 5.804-5.791s5.805 2.597 5.805 5.79c0 3.194-2.604 5.791-5.805 5.791zm44.91 0c-3.2 0-5.804-2.597-5.804-5.79 0-3.194 2.604-5.791 5.804-5.791s5.805 2.597 5.805 5.79c0 3.194-2.604 5.791-5.805 5.791zm44.91 0c-3.2 0-5.804-2.597-5.804-5.79 0-3.194 2.604-5.791 5.804-5.791s5.805 2.597 5.805 5.79c0 3.194-2.604 5.791-5.805 5.791zm44.805 0c-3.175-.014-5.768-2.612-5.768-5.79 0-3.181 2.594-5.779 5.781-5.791h-.05.19c3.165.014 5.757 2.612 5.757 5.79 0 3.18-2.591 5.776-5.777 5.791zM5.804 11.582C2.604 11.582 0 8.985 0 5.792 0 2.598 2.604 0 5.804 0s5.805 2.597 5.805 5.79c0 3.194-2.604 5.791-5.805 5.791zm44.91 0c-3.2 0-5.804-2.597-5.804-5.79C44.91 2.598 47.514 0 50.714 0s5.805 2.597 5.805 5.79c0 3.194-2.604 5.791-5.805 5.791zm44.91 0c-3.2 0-5.804-2.597-5.804-5.79C89.82 2.598 92.424 0 95.624 0s5.805 2.597 5.805 5.79c0 3.194-2.604 5.791-5.805 5.791zm44.802 0c-3.173-.014-5.765-2.612-5.765-5.79 0-3.18 2.593-5.777 5.779-5.791L140.365 0h.22c3.164.017 5.754 2.615 5.754 5.792 0 3.175-2.588 5.771-5.77 5.79zM185.376 146c-3.2 0-5.804-2.598-5.804-5.791 0-3.193 2.603-5.79 5.804-5.79 3.2 0 5.804 2.597 5.804 5.79S188.576 146 185.376 146zm44.91 0c-3.2 0-5.804-2.598-5.804-5.791 0-3.193 2.604-5.79 5.804-5.79s5.804 2.597 5.804 5.79-2.604 5.791-5.804 5.791zm44.91 0c-3.2 0-5.805-2.598-5.805-5.791 0-3.193 2.604-5.79 5.805-5.79 3.2 0 5.804 2.597 5.804 5.79S278.396 146 275.196 146zm-89.82-44.806c-3.2 0-5.804-2.598-5.804-5.79 0-3.194 2.603-5.792 5.804-5.792 3.2 0 5.804 2.598 5.804 5.791 0 3.193-2.604 5.791-5.804 5.791zm44.91 0c-3.2 0-5.804-2.598-5.804-5.79 0-3.194 2.604-5.792 5.804-5.792s5.804 2.598 5.804 5.791c0 3.193-2.604 5.791-5.804 5.791zm44.91 0c-3.2 0-5.805-2.598-5.805-5.79 0-3.194 2.604-5.792 5.805-5.792 3.2 0 5.804 2.598 5.804 5.791 0 3.193-2.604 5.791-5.804 5.791zm-89.82-44.806c-3.2 0-5.804-2.597-5.804-5.79 0-3.194 2.603-5.791 5.804-5.791 3.2 0 5.804 2.597 5.804 5.79 0 3.194-2.604 5.791-5.804 5.791zm44.91 0c-3.2 0-5.804-2.597-5.804-5.79 0-3.194 2.604-5.791 5.804-5.791s5.804 2.597 5.804 5.79c0 3.194-2.604 5.791-5.804 5.791zm44.91 0c-3.2 0-5.805-2.597-5.805-5.79 0-3.194 2.604-5.791 5.805-5.791 3.2 0 5.804 2.597 5.804 5.79 0 3.194-2.604 5.791-5.804 5.791zm-89.82-44.806c-3.2 0-5.804-2.597-5.804-5.79 0-3.194 2.603-5.791 5.804-5.791 3.2 0 5.804 2.597 5.804 5.79 0 3.194-2.604 5.791-5.804 5.791zm44.91 0c-3.2 0-5.804-2.597-5.804-5.79 0-3.194 2.604-5.791 5.804-5.791s5.804 2.597 5.804 5.79c0 3.194-2.604 5.791-5.804 5.791zm44.91 0c-3.2 0-5.805-2.597-5.805-5.79 0-3.194 2.604-5.791 5.805-5.791 3.2 0 5.804 2.597 5.804 5.79 0 3.194-2.604 5.791-5.804 5.791z"/></g></g></svg>